<?xml version="1.0" ?><svg id="Layer_1_1_" style="enable-background:new 0 0 16 16;" version="1.1" viewBox="0 0 16 16" xml:space="preserve" xmlns="http://www.w3.org/2000/svg" xmlns:xlink="http://www.w3.org/1999/xlink"><path d="M14,4c1.105,0,2-0.895,2-2c0-1.105-0.895-2-2-2s-2,0.895-2,2c0,0.144,0.017,0.283,0.045,0.418L3.501,6.691  C3.134,6.271,2.601,6,2,6C0.895,6,0,6.895,0,8c0,1.105,0.895,2,2,2c0.601,0,1.134-0.271,1.501-0.691l8.545,4.272  C12.017,13.717,12,13.856,12,14c0,1.105,0.895,2,2,2s2-0.895,2-2c0-1.105-0.895-2-2-2c-0.601,0-1.134,0.271-1.501,0.691L3.955,8.418  C3.983,8.283,4,8.144,4,8c0-0.144-0.017-0.283-0.045-0.418l8.545-4.272C12.866,3.729,13.399,4,14,4z"/></svg>