<?xml version="1.0" ?><!DOCTYPE svg  PUBLIC '-//W3C//DTD SVG 1.1//EN'  'http://www.w3.org/Graphics/SVG/1.1/DTD/svg11.dtd'><svg enable-background="new 0 0 128 128" height="128px" id="Layer_1" version="1.1" viewBox="0 0 128 128" width="128px" xml:space="preserve" xmlns="http://www.w3.org/2000/svg" xmlns:xlink="http://www.w3.org/1999/xlink"><path d="M74.508,108.239c-0.772,0-1.479-0.445-1.81-1.148l-16.863-35.84L20.732,55.116c-0.734-0.337-1.193-1.083-1.164-1.891  c0.03-0.808,0.543-1.518,1.3-1.8l83.312-31.107c0.729-0.271,1.552-0.096,2.105,0.452c0.555,0.548,0.739,1.369,0.475,2.102  l-30.371,84.047c-0.274,0.761-0.98,1.28-1.788,1.318C74.569,108.238,74.538,108.239,74.508,108.239z M26.772,53.49l31.396,14.432  c0.429,0.197,0.774,0.539,0.975,0.965l15.122,32.139l27.264-75.448L26.772,53.49z"/><path d="M57.334,71.738c-0.512,0-1.023-0.195-1.414-0.586c-0.781-0.78-0.781-2.047,0-2.828l47.545-47.546  c0.781-0.781,2.047-0.781,2.828,0c0.781,0.781,0.781,2.047,0,2.828L58.748,71.152C58.357,71.543,57.846,71.738,57.334,71.738z"/></svg>